# xmcd
#
# Track frame offsets: 
#        150
#        18447
#        40460
#        56077
#        72260
#        87017
#        103260
#        118640
#        136535
#        147592
#
# Disc length: 2199 seconds
#
# Revision: 2
# Processed by: cddbd v1.5PL3 Copyright (c) Steve Scherf et al.
# Submitted via: ExactAudioCopy v0.95a3
#
DISCID=8c08950a
DTITLE=Larry Stewart - Heart Like A Hurricane
DYEAR=1994
DGENRE=Country
TTITLE0=Heart Like A Hurricane
TTITLE1=Losing Your Love
TTITLE2=She Wants To Be Wanted Again
TTITLE3=It's How Deep
TTITLE4=Mama Needs Someone To Hold Her
TTITLE5=One Track Mind
TTITLE6=Real Life Love
TTITLE7=Try Being Me
TTITLE8=Rockin' The Rock
TTITLE9=I'm Not Through Lovin' You
EXTD=
EXTT0=
EXTT1=
EXTT2=
EXTT3=
EXTT4=
EXTT5=
EXTT6=
EXTT7=
EXTT8=
EXTT9=
PLAYORDER=
